# xmcd
#
# Track frame offsets: 
#        150
#        4650
#        21788
#        33075
#        50550
#        65325
#        88387
#        102412
#        116624
#        127273
#        149548
#        165298
#        178573
#        189035
#        204860
#        220160
#        241835
#        262535
#        283235
#        293941
#
# Disc length: 4092 seconds
#
# Revision: 0
# Processed by: cddbd v1.5.2PL0 Copyright (c) Steve Scherf et al.
# Submitted via: ExactAudioCopy v0.99pb5
#
DISCID=180ffa14
DTITLE=John Denver - In Concert
DYEAR=2008
DGENRE=Country
TTITLE0=The Music is You
TTITLE1=Farewell Andromeda
TTITLE2=Toledo
TTITLE3=Matthew
TTITLE4=Rocky Mountain Suite
TTITLE5=Sweet Surrender
TTITLE6=Grandma's Feather Bed
TTITLE7=Annie's Song
TTITLE8=The Eagle and The Hawk
TTITLE9=My Sweet Lady
TTITLE10=Rhymes and Reasons
TTITLE11=Forest Lawn
TTITLE12=Blue Grass
TTITLE13=Thank God I'm a Country Boy
TTITLE14=Take me Home Country Roads
TTITLE15=Poems, Prayers and Promises
TTITLE16=Rocky Mountain High
TTITLE17=This Old Guitar
TTITLE18=Mother Nature's Son
TTITLE19=Summer
EXTD=
EXTT0=
EXTT1=
EXTT2=
EXTT3=
EXTT4=
EXTT5=
EXTT6=
EXTT7=
EXTT8=
EXTT9=
EXTT10=
EXTT11=
EXTT12=
EXTT13=
EXTT14=
EXTT15=
EXTT16=
EXTT17=
EXTT18=
EXTT19=
PLAYORDER=
